<svg width="18" height="17" viewBox="0 0 18 17" fill="none" xmlns="http://www.w3.org/2000/svg">
<path d="M15.6249 4.47704L12.5453 1.89243L11.6836 2.89676L14.7633 5.48137L15.6249 4.47704ZM6.21734 2.9908L5.34568 1.99516L2.29174 4.54382L3.1634 5.53946L6.21734 2.9908ZM9.29933 6.04207L8.29934 6.04708L8.31937 10.047L11.4623 11.9646L11.9917 11.162L9.31702 9.57536L9.29933 6.04207ZM8.95265 3.37711C5.61935 3.3938 2.96608 6.07379 2.98277 9.40708C2.99946 12.7404 5.67945 15.3937 9.01274 15.377C12.346 15.3603 14.9993 12.6803 14.9826 9.34699C14.9659 6.01369 12.2859 3.36042 8.95265 3.37711ZM9.00606 14.0436C6.4061 14.0567 4.32911 12.0004 4.31609 9.4004C4.30306 6.80044 6.35936 4.72345 8.95932 4.71043C11.5593 4.69741 13.6363 6.7537 13.6493 9.35366C13.6623 11.9536 11.606 14.0306 9.00606 14.0436Z" fill="white"/>
</svg>
